<?xml version="1.0" encoding="UTF-8" standalone="no"?>
<svg width="400px" height="423px" viewBox="0 0 400 423" version="1.1" xmlns="http://www.w3.org/2000/svg" xmlns:xlink="http://www.w3.org/1999/xlink" xmlns:sketch="http://www.bohemiancoding.com/sketch/ns">
    <!-- Generator: Sketch 3.4.3 (16618) - http://www.bohemiancoding.com/sketch -->
    <title>logo-color-face</title>
    <desc>Created with Sketch.</desc>
    <defs></defs>
    <g id="Page-3" stroke="none" stroke-width="1" fill="none" fill-rule="evenodd" sketch:type="MSPage">
        <g id="logo-color-face" sketch:type="MSLayerGroup">
            <rect id="Rectangle-6" stroke="#000000" fill="#FFFFFF" sketch:type="MSShapeGroup" x="0" y="0" width="398.00995" height="400"></rect>
            <g id="rings" transform="translate(1.880964, 0.000000)">
                <g id="border">
                    <ellipse id="contrast-ring" fill="#3FB6ED" sketch:type="MSShapeGroup" cx="199.521285" cy="200.523514" rx="196.513653" ry="197.390355"></ellipse>
                    <ellipse id="inner-white" fill="#FFFFFF" sketch:type="MSShapeGroup" cx="194.053173" cy="199.405522" rx="152.364" ry="149.554142"></ellipse>
                    <polygon id="Star-3" fill="#FFFFFF" sketch:type="MSShapeGroup" points="198.51987 332.538158 181.684209 398.092684 176.120276 330.623167 148.497218 392.376816 154.365078 324.933282 116.749288 381.109515 133.880132 315.632192 87.3537483 364.614922 115.254755 302.987473 61.1562557 343.367554 99.0247626 287.36289 38.9104642 317.978661 85.6570636 269.207933 21.2563447 289.178635 75.5362221 249.044888 8.70177413 257.796 68.9533963 227.453809 1.60792454 224.733577 66.097962 205.055832 0.178873112 190.942512 67.0520648 182.495305 4.45573105 157.394912 71.7882571 160.421255 14.3154609 125.055882 80.1702872 139.468711 29.4744163 94.8557546 91.9570192 120.24044 49.4965016 67.663334 106.80937 103.289604 73.8057178 44.2608963 124.300066 89.1038487 101.702733 25.3216871 143.92593 78.0912714 132.385001 11.3905528 165.122362 70.5686841 164.969849 2.86826691 187.27958 66.7524981 198.51987 0 209.76016 66.7524981 232.069891 2.86826691 231.917378 70.5686841 264.654739 11.3905528 253.11381 78.0912714 295.337007 25.3216871 272.739674 89.1038487 323.234022 44.2608963 290.23037 103.289604 347.543239 67.663334 305.082721 120.24044 367.565324 94.8557546 316.869453 139.468711 382.724279 125.055882 325.251483 160.421255 392.584009 157.394912 329.987675 182.495305 396.860867 190.942512 330.941778 205.055832 395.431816 224.733577 328.086344 227.453809 388.337966 257.796 321.503518 249.044888 375.783395 289.178635 311.382677 269.207933 358.129276 317.978661 298.014978 287.36289 335.883485 343.367554 281.784986 302.987473 309.685992 364.614922 263.159608 315.632192 280.290452 381.109515 242.674662 324.933282 248.542522 392.376816 220.919464 330.623167 215.355531 398.092684 "></polygon>
                    <path d="M199.264629,355.495734 C286.866724,355.495734 357.882253,284.163385 357.882253,196.170473 C357.882253,108.177561 286.866724,36.8452114 199.264629,36.8452114 C111.662535,36.8452114 40.6470054,108.177561 40.6470054,196.170473 C40.6470054,284.163385 111.662535,355.495734 199.264629,355.495734 Z M199.264629,339.563208 C278.106515,339.563208 342.020491,275.364093 342.020491,196.170473 C342.020491,116.976852 278.106515,52.7777375 199.264629,52.7777375 C120.422744,52.7777375 56.5087678,116.976852 56.5087678,196.170473 C56.5087678,275.364093 120.422744,339.563208 199.264629,339.563208 Z" id="middle" fill="#07366D" sketch:type="MSShapeGroup"></path>
                    <path d="M199.274574,399.35754 C308.777193,399.35754 397.546604,310.192103 397.546604,200.200963 C397.546604,90.2098229 308.777193,1.04438642 199.274574,1.04438642 C89.7719555,1.04438642 1.00254396,90.2098229 1.00254396,200.200963 C1.00254396,310.192103 89.7719555,399.35754 199.274574,399.35754 Z M199.274574,379.441882 C297.826931,379.441882 377.719401,299.192989 377.719401,200.200963 C377.719401,101.208937 297.826931,20.9600441 199.274574,20.9600441 C100.722217,20.9600441 20.829747,101.208937 20.829747,200.200963 C20.829747,299.192989 100.722217,379.441882 199.274574,379.441882 Z" id="outer" fill="#07366D" sketch:type="MSShapeGroup"></path>
                    <g id="Rectangle-1-+-goodbedford-Copy" transform="translate(77.422749, 345.968581)">
                        <rect id="Rectangle-1" fill="#07366D" sketch:type="MSShapeGroup" x="0" y="0" width="243.186841" height="52.8584272" rx="8"></rect>
                        <text id="goodbedford" fill="#FFFFFF" sketch:type="MSTextLayer" font-family="Helvetica" font-size="34.9967835" font-weight="normal">
                            <tspan x="25.0135036" y="34">goodbedfor</tspan>
                            <tspan x="25.0135036" y="76">d</tspan>
                        </text>
                    </g>
                </g>
            </g>
            <g id="gbhead" transform="translate(193.349805, 191.055957) rotate(16.000000) translate(-193.349805, -191.055957) translate(121.493692, 93.175992)" stroke="#000000" sketch:type="MSShapeGroup">
                <path d="M38.5205122,52.0205926 L18.269756,64.5671032 L25.0490004,96.8195772 L27.9301048,117.299055 C27.9301048,117.299055 37.5884781,141.454214 40.3687689,144.605358 C43.1490598,147.756501 48.166037,164.525858 51.2102218,165.982352 C54.2544065,167.438847 70.5714418,179.798376 70.5714418,179.798376 L87.6683019,187.762833 L121.839294,179.798376 C121.839294,179.798376 133.353826,160.951545 136.858595,152.778451 C140.363364,144.605358 141.833073,141.76126 140.363363,124.891521 C138.893653,108.021783 135.202084,92.1361633 135.202084,92.1361633 L129.246153,76.5890793 L114.742781,54.7967873 L107.381386,42.7620177 L101.467955,35.83088 L66.858129,40.9069567 L53.8600474,42.5583054 L38.5205122,52.0205926 Z" id="Path-56" fill="#8B572A"></path>
                <path d="M93.0737109,109.739068 C93.0737109,109.739068 97.9305714,116.883759 100.095106,116.883759 C102.259641,116.883759 109.692118,117.853038 109.692118,121.97389 C110.111882,129.058067 100.095107,127.283009 100.095107,127.283009 C100.095107,127.283009 99.950804,131.783294 96.5122575,132.910108 C93.0737109,134.036923 78.1077808,132.461352 79.1623734,134.46403 C80.216966,136.466707 85.5701585,135.565544 85.5701585,135.565544 C85.5701585,135.565544 72.6910754,136.368468 71.9123683,132.910109 C71.1336612,129.45175 77.169795,123.844836 77.169795,123.844836 L77.5434824,115.730218" id="Path-57"></path>
                <g id="mouth" transform="translate(67.552546, 131.681427)">
                    <path d="M55.3836151,5.80355102 C55.3836151,5.80355102 46.76137,20.6701404 45.0598507,21.8972014 C43.3583315,23.1242624 36.75709,23.198774 35.5405538,24.2930511 C34.3240176,25.3873282 27.3289369,27.2534732 23.8035745,27.9756663 C20.2782122,28.6978594 7.4873159,24.2930508 7.4873159,24.2930508 C7.4873159,24.2930508 20.4979168,11.347535 24.721253,11.3475351 C28.9445891,11.3475353 28.9824863,12.2283057 28.9824863,12.2283057 C28.9824863,12.2283057 28.5234052,9.10691919 33.5147531,8.48503004 C38.506101,7.8631409 55.3836151,5.80355102 55.3836151,5.80355102 Z" id="Path-58" fill="#412426"></path>
                    <path d="M1.67950885,21.2987167 C0.384797875,25.5139333 0.203395868,23.3282414 3.80748705,27.5276386" id="Path-59"></path>
                    <path d="M57.6080143,0.649799985 C60.5055548,4.66406563 59.7291879,2.35302718 59.565217,7.69596637" id="Path-60"></path>
                    <path d="M2.06327408,24.7663935 C16.0227489,23.3200846 41.2553135,13.2648375 54.7235389,6.79847813" id="Path-61"></path>
                </g>
                <path d="M55.683468,46.5534764 L47.2278169,52.7908265 L38.9361668,53.0227402 C38.9361668,53.0227402 31.176648,55.9976629 28.1810113,62.1681319 C25.1853746,68.338601 26.2714456,73.3964047 26.2714456,73.3964047 L26.6692354,85.1102195 L28.7637385,90.9028512 L27.1437917,104.924512 L30.8774332,113.256903 L32.1868247,126.042558 L29.092613,122.334544 L24.0879632,120.104003 L24.4072419,123.41594 L18.3470532,117.33233 L20.9073892,113.643425 L19.0641218,110.958611 C19.0641218,110.958611 16.2987847,112.231966 14.8157961,108.060993 C13.3328075,103.890019 13.1182103,103.288953 14.815796,101.666426 C16.5133817,100.043899 12.4020143,98.1130229 12.4020143,98.1130229 L9.93850879,94.7819784 L9.00684313,89.9830136 L12.1106507,88.2163 L9.02603474,83.3591406 L9.02603474,78.2605129 C9.02603474,78.2605129 12.1106503,75.0258809 6.33920863,73.3964044 C0.567767003,71.7669279 0.762299765,67.4839075 0.762299765,67.4839075 L6.50320971,61.6139713 L7.68611107,53.4353208 L4.84400735,51.2629754 L11.5253064,44.6295479 L8.28541287,38.0143608 L20.9405383,35.4650469 L22.8867425,26.0634207 L38.3246522,10.7102107 L41.1179045,12.3136292 L42.9018524,5.54470156 L50.1039421,6.11884004 L55.4479345,7.14203994 C55.4479345,7.14203994 53.7311588,0.276698669 57.523246,0.276698694 C61.3153332,0.276698719 64.6703779,6.44716734 64.6703779,6.44716734 L76.2202408,0.816962137 L85.0265751,2.44904414 L84.5607422,9.61404919 L85.4915356,13.5348678 L98.5156634,5.89648081 L101.007084,10.985554 L109.609289,10.7631947 L110.617721,18.1687994 L106.661632,19.6862275 L113.953573,22.3892819 L119.917804,33.3204964 L124.708729,32.6351783 L125.872438,37.8684375 L123.777935,41.3358518 L128.965778,38.1967648 L131.991947,41.6042463 L130.148672,53.4353197 L138.576415,48.5477607 L134.114365,55.1038836 L142.260333,63.0106652 L136.752339,63.29122 L141.077432,67.5985615 L138.701161,70.3511256 L140.417066,74.667153 L137.479004,76.6666489 L137.711048,81.2918946 L132.957634,77.5352396 L138.028582,85.0085944 L137.175427,90.2522767 L135.584271,93.6649682 L130.148672,83.359143 L125.872443,71.60363 L117.604342,66.1236944 L110.989341,58.5721665 L109.609287,51.2629747 L95.4057494,41.8179196 L91.2158709,42.725597 L87.1446339,41.8179208 L77.6613535,42.7255964 L69.0853217,48.5095427 L63.0085581,44.6295483 L55.683468,46.5534764 Z" id="hair" fill="#000000"></path>
                <g id="glasses" transform="translate(25.688996, 78.629917)">
                    <g id="Path-63-+-Path-64-+-Path-65">
                        <path d="M94.0789938,1.21915987 C98.0588757,5.52125672 110.500224,14.9093184 105.707908,27.7960411 C100.915592,40.6827637 72.2998814,35.6940214 66.3537023,28.6184288 C60.4075232,21.5428362 58.2422647,17.8173293 55.1497345,18.7351014 C52.0572042,19.6528736 51.7839377,31.8278801 51.7839377,31.8278801 C51.7839377,31.8278801 55.7828568,58.7936369 23.6779146,56.7618199 C13.2869947,53.0644349 6.28336326,40.1703794 10.1195477,29.9850799 C21.3493074,23.9531359 90.099112,-3.08293698 94.0789938,1.21915987 Z" id="Path-63" stroke-width="2" fill="#000000"></path>
                        <path d="M11.9384654,40.0126261 L11.9992597,43.1878377 L1.09742137,42.1068105 L0.27823293,39.3467672 L11.9384654,40.0126261 Z" id="Path-64" fill="#4B494B"></path>
                        <path d="M102.047966,10.9985423 L102.321233,13.445528 L107.666223,12.7931208 L108.656127,4.22133367 L105.263311,8.9997427 L102.047966,10.9985423 Z" id="Path-65" fill="#383535"></path>
                    </g>
                </g>
                <g id="facial-hair" transform="translate(49.475104, 130.734079)" fill="#000000">
                    <path d="M0.0168908633,30.3660606 L9.29943787,39.9381166 L14.4090406,38.3099432 L23.3519395,48.0179708 L44.5484307,49.5188887 L48.4316237,46.4961342 L51.7598231,49.5188895 L54.7089855,43.3086448 L59.2924838,45.2558287 L62.0761975,42.8623788 L69.6858902,40.6824743 L77.5984649,36.3514283 L89.6647255,13.0575659 L90.9979318,6.30430697 L92.4773268,12.4866593 L88.6527843,20.5177032 L89.1202381,24.1697624 L86.7068109,29.0438234 L86.3268953,35.2357635 L83.0853571,35.8554804 L83.0949863,41.5915668 L80.1274425,42.8510479 L80.8277478,49.1693719 L75.6314823,52.4248471 C75.6314823,52.4248471 73.0508569,50.3312332 71.3683737,53.1221377 C69.6858905,55.9130421 62.9393238,57.7634779 62.9393238,57.7634779 L62.3265566,64.2561245 L56.9735979,61.9306605 L55.1921962,63.7906831 L47.8346134,60.4576342 L40.6232194,62.7055246 L34.1121307,61.0782228 L24.3901421,55.9618534 L20.896494,52.2418083 L14.9990478,50.2074632 L9.4219913,42.3882213 L0.0904229218,38.3570103 L0.0168908633,30.3660606 Z" id="beard"></path>
                    <g id="mustach" transform="translate(16.174553, 0.000000)">
                        <path d="M4.36128354,22.3106115 L2.57112807,27.1846725 L0.400181582,22.3201993 L4.66329021,18.8511788 L24.0687506,10.0522437 L9.20914712,18.7736052 L4.36128354,22.3106115 Z" id="Path-67"></path>
                        <path d="M36.0498983,8.10997344 C36.0498983,8.10997344 33.9338357,4.58325808 34.8733854,3.01919683 C35.8129352,1.45513558 43.5455546,0.820988363 43.5455546,0.820988363 L62.0496099,8.10997329 C62.0496099,8.10997329 45.8128608,2.65898155 41.1595009,3.01919683 C36.5061411,3.37941212 36.0498983,8.10997344 36.0498983,8.10997344 Z" id="Path-67-Copy" transform="translate(48.341233, 4.465481) scale(-1, 1) translate(-48.341233, -4.465481) "></path>
                    </g>
                </g>
            </g>
        </g>
    </g>
</svg>