<?xml version="1.0" encoding="UTF-8" standalone="no"?>
<svg width="399px" height="400px" viewBox="0 0 399 400" version="1.1" xmlns="http://www.w3.org/2000/svg" xmlns:xlink="http://www.w3.org/1999/xlink" xmlns:sketch="http://www.bohemiancoding.com/sketch/ns">
    <!-- Generator: Sketch 3.4.3 (16618) - http://www.bohemiancoding.com/sketch -->
    <title>logo-color gb</title>
    <desc>Created with Sketch.</desc>
    <defs></defs>
    <g id="Page-3" stroke="none" stroke-width="1" fill="none" fill-rule="evenodd" sketch:type="MSPage">
        <g id="logo-color-gb" sketch:type="MSLayerGroup" transform="translate(-1.000000, 0.000000)">
            <g id="rings" transform="translate(0.985087, 0.000000)">
                <g id="border" transform="translate(-0.000000, 0.000000)">
                    <ellipse id="contrast-ring" fill="#3FB6ED" sketch:type="MSShapeGroup" cx="200.015075" cy="200.523514" rx="196.999999" ry="197.390355"></ellipse>
                    <ellipse id="inner-white" fill="#FFFFFF" sketch:type="MSShapeGroup" cx="194.53343" cy="199.405522" rx="152.741082" ry="149.554142"></ellipse>
                    <polygon id="Star-3" fill="#FFFFFF" sketch:type="MSShapeGroup" points="199.011182 332.538158 182.133855 398.092684 176.556152 330.623167 148.86473 392.376816 154.747112 324.933282 117.038228 381.109515 134.211469 315.632192 87.5699379 364.614922 115.539996 302.987473 61.3076098 343.367554 99.2698364 287.36289 39.0067627 317.978661 85.8690541 269.207933 21.3089515 289.178635 75.7231648 249.044888 8.72330992 257.796 69.1240473 227.453809 1.61190395 224.733577 66.2615461 205.055832 0.1793158 190.942512 67.2180103 182.495305 4.46675842 157.394912 71.965924 160.421255 14.3508899 125.055882 80.3686986 139.468711 29.5473618 94.8557546 92.1846013 120.24044 49.6189992 67.663334 107.07371 103.289604 73.9883777 44.2608963 124.607693 89.1038487 101.954435 25.3216871 144.282128 78.0912714 132.712638 11.3905528 165.531019 70.5686841 165.378129 2.86826691 187.743073 66.7524981 199.011182 0 210.27929 66.7524981 232.644235 2.86826691 232.491344 70.5686841 265.309726 11.3905528 253.740235 78.0912714 296.067929 25.3216871 273.414671 89.1038487 324.033986 44.2608963 290.948653 103.289604 348.403364 67.663334 305.837762 120.24044 368.475002 94.8557546 317.653665 139.468711 383.671474 125.055882 326.05644 160.421255 393.555605 157.394912 330.804353 182.495305 397.843048 190.942512 331.760818 205.055832 396.41046 224.733577 328.898316 227.453809 389.299054 257.796 322.299199 249.044888 376.713412 289.178635 312.15331 269.207933 359.015601 317.978661 298.752527 287.36289 336.714754 343.367554 282.482368 302.987473 310.452426 364.614922 263.810895 315.632192 280.984136 381.109515 243.275252 324.933282 249.157634 392.376816 221.466212 330.623167 215.888509 398.092684 "></polygon>
                    <path d="M200.010183,355.650523 C287.829082,355.650523 359.020365,284.318173 359.020365,196.325261 C359.020365,108.332349 287.829082,37 200.010183,37 C112.191284,37 41,108.332349 41,196.325261 C41,284.318173 112.191284,355.650523 200.010183,355.650523 Z M200.010183,339.717996 C279.047192,339.717996 343.119347,275.518882 343.119347,196.325261 C343.119347,117.13164 279.047192,52.9325261 200.010183,52.9325261 C120.973174,52.9325261 56.9010183,117.13164 56.9010183,196.325261 C56.9010183,275.518882 120.973174,339.717996 200.010183,339.717996 Z" id="middle" fill="#07366D" sketch:type="MSShapeGroup"></path>
                    <path d="M199.762728,399.313153 C309.536352,399.313153 398.525457,310.147717 398.525457,200.156577 C398.525457,90.1654365 309.536352,1 199.762728,1 C89.9891047,1 1,90.1654365 1,200.156577 C1,310.147717 89.9891047,399.313153 199.762728,399.313153 Z M199.762728,379.397495 C298.55899,379.397495 378.649184,299.148603 378.649184,200.156577 C378.649184,101.164551 298.55899,20.9156577 199.762728,20.9156577 C100.966467,20.9156577 20.8762728,101.164551 20.8762728,200.156577 C20.8762728,299.148603 100.966467,379.397495 199.762728,379.397495 Z" id="outer" fill="#07366D" sketch:type="MSShapeGroup"></path>
                    <g id="Rectangle-1-+-goodbedford-Copy" transform="translate(77.614361, 345.968581)">
                        <rect id="Rectangle-1" fill="#07366D" sketch:type="MSShapeGroup" x="0" y="0" width="243.788698" height="52.8584272" rx="8"></rect>
                        <text id="goodbedford" fill="#FFFFFF" sketch:type="MSTextLayer" font-family="Helvetica" font-size="34.2766464" font-weight="normal">
                            <tspan x="25.0754089" y="33">goodbedford</tspan>
                        </text>
                    </g>
                </g>
            </g>
            <text id="GB" sketch:type="MSTextLayer" font-family="Kannada Sangam MN" font-size="144.723618" font-weight="bold" fill="#07366D">
                <tspan x="100" y="251">GB</tspan>
            </text>
        </g>
    </g>
</svg>