<?xml version="1.0" encoding="UTF-8" standalone="no"?>
<svg width="16px" height="16px" viewBox="0 0 16 16" version="1.1" xmlns="http://www.w3.org/2000/svg" xmlns:xlink="http://www.w3.org/1999/xlink" xmlns:sketch="http://www.bohemiancoding.com/sketch/ns">
    <!-- Generator: Sketch 3.4.3 (16618) - http://www.bohemiancoding.com/sketch -->
    <title>logo-color gb</title>
    <desc>Created with Sketch.</desc>
    <defs></defs>
    <g id="Page-3" stroke="none" stroke-width="1" fill="none" fill-rule="evenodd" sketch:type="MSPage">
        <g id="logo-color-gb" sketch:type="MSLayerGroup">
            <g id="rings" transform="translate(0.039403, 0.000000)">
                <g id="border" transform="translate(-0.000000, 0.000000)">
                    <ellipse id="contrast-ring" fill="#3FB6ED" sketch:type="MSShapeGroup" cx="8.00060299" cy="8.02094056" rx="7.87999998" ry="7.89561419"></ellipse>
                    <ellipse id="inner-white" fill="#FFFFFF" sketch:type="MSShapeGroup" cx="7.78133721" cy="7.97622089" rx="6.10964328" ry="5.98216567"></ellipse>
                    <polygon id="Star-3" fill="#FFFFFF" sketch:type="MSShapeGroup" points="7.96044727 13.3015263 7.28535418 15.9237074 7.06224607 13.2249267 5.9545892 15.6950726 6.18988448 12.9973313 4.68152911 15.2443806 5.36845876 12.6252877 3.50279751 14.5845969 4.62159983 12.1194989 2.45230439 13.7347022 3.97079346 11.4945156 1.56027051 12.7191465 3.43476216 10.7683173 0.852358061 11.5671454 3.02892659 9.96179552 0.348932397 10.31184 2.76496189 9.09815235 0.0644761581 8.98934308 2.65046184 8.20223326 0.00717263202 7.63770048 2.68872041 7.2998122 0.178670337 6.2957965 2.87863696 6.41685019 0.574035596 5.00223526 3.21474794 5.57874844 1.18189447 3.79423018 3.68738405 4.8096176 1.98475997 2.70653336 4.28294841 4.13158418 2.95953511 1.77043585 4.98430772 3.56415395 4.07817739 1.01286748 5.77128514 3.12365085 5.3085055 0.455622113 6.62124077 2.82274736 6.61512515 0.114730676 7.50972293 2.67009993 7.96044727 0 8.41117162 2.67009993 9.30576939 0.114730676 9.29965378 2.82274736 10.612389 0.455622113 10.1496094 3.12365085 11.8427172 1.01286748 10.9365868 3.56415395 12.9613594 1.77043585 11.6379461 4.13158418 13.9361346 2.70653336 12.2335105 4.8096176 14.7390001 3.79423018 12.7061466 5.57874844 15.346859 5.00223526 13.0422576 6.41685019 15.7422242 6.2957965 13.2321741 7.2998122 15.9137219 7.63770048 13.2704327 8.20223326 15.8564184 8.98934308 13.1559327 9.09815235 15.5719622 10.31184 12.891968 9.96179552 15.0685365 11.5671454 12.4861324 10.7683173 14.360624 12.7191465 11.9501011 11.4945156 13.4685902 13.7347022 11.2992947 12.1194989 12.418097 14.5845969 10.5524358 12.6252877 11.2393654 15.2443806 9.73101007 12.9973313 9.96630535 15.6950726 8.85864848 13.2249267 8.63554036 15.9237074 "></polygon>
                    <path d="M8.00040731,14.2260209 C11.5131633,14.2260209 14.3608146,11.3727269 14.3608146,7.85301045 C14.3608146,4.33329397 11.5131633,1.48 8.00040731,1.48 C4.48765135,1.48 1.64,4.33329397 1.64,7.85301045 C1.64,11.3727269 4.48765135,14.2260209 8.00040731,14.2260209 Z M8.00040731,13.5887199 C11.1618877,13.5887199 13.7247739,11.0207553 13.7247739,7.85301045 C13.7247739,4.68526562 11.1618877,2.11730105 8.00040731,2.11730105 C4.83892695,2.11730105 2.27604073,4.68526562 2.27604073,7.85301045 C2.27604073,11.0207553 4.83892695,13.5887199 8.00040731,13.5887199 Z" id="middle" fill="#07366D" sketch:type="MSShapeGroup"></path>
                    <path d="M7.99050914,15.9725261 C12.3814541,15.9725261 15.9410183,12.4059087 15.9410183,8.00626306 C15.9410183,3.60661746 12.3814541,0.04 7.99050914,0.04 C3.59956419,0.04 0.04,3.60661746 0.04,8.00626306 C0.04,12.4059087 3.59956419,15.9725261 7.99050914,15.9725261 Z M7.99050914,15.1758998 C11.9423596,15.1758998 15.1459674,11.9659441 15.1459674,8.00626306 C15.1459674,4.04658202 11.9423596,0.836626306 7.99050914,0.836626306 C4.03865868,0.836626306 0.835050914,4.04658202 0.835050914,8.00626306 C0.835050914,11.9659441 4.03865868,15.1758998 7.99050914,15.1758998 Z" id="outer" fill="#07366D" sketch:type="MSShapeGroup"></path>
                    <g id="Rectangle-1-+-goodbedford-Copy" transform="translate(3.104574, 13.838743)">
                        <rect id="Rectangle-1" fill="#07366D" sketch:type="MSShapeGroup" x="0" y="0" width="9.75154791" height="2.11433709" rx="8"></rect>
                        <text id="goodbedford" fill="#FFFFFF" sketch:type="MSTextLayer" font-family="Helvetica" font-size="1.37106586" font-weight="normal">
                            <tspan x="1.00301636" y="1">goodbedford</tspan>
                        </text>
                    </g>
                </g>
            </g>
            <text id="GB" sketch:type="MSTextLayer" font-family="Helvetica" font-size="5.56708134" font-weight="normal" fill="#07366D">
                <tspan x="4" y="9.32">GB</tspan>
            </text>
        </g>
    </g>
</svg>